<mxfile host="app.diagrams.net" modified="2023-05-27T07:36:49.152Z" agent="Mozilla/5.0 (Windows NT 10.0; Win64; x64) AppleWebKit/537.36 (KHTML, like Gecko) Chrome/113.0.0.0 Safari/537.36" etag="aiPdg0Z7EEv2D4gIeION" version="21.3.0" type="github">
  <diagram name="Halaman-1" id="IDPkt6IPQC_1jw6kws_v">
    <mxGraphModel dx="989" dy="482" grid="1" gridSize="10" guides="1" tooltips="1" connect="1" arrows="1" fold="1" page="1" pageScale="1" pageWidth="827" pageHeight="1169" math="0" shadow="0">
      <root>
        <mxCell id="0" />
        <mxCell id="1" parent="0" />
        <mxCell id="IdXI2zrkfBvDs6GvW4y7-14" value="" style="edgeStyle=orthogonalEdgeStyle;rounded=0;orthogonalLoop=1;jettySize=auto;html=1;" parent="1" source="IdXI2zrkfBvDs6GvW4y7-10" edge="1">
          <mxGeometry relative="1" as="geometry">
            <mxPoint x="400" y="120" as="targetPoint" />
          </mxGeometry>
        </mxCell>
        <mxCell id="IdXI2zrkfBvDs6GvW4y7-10" value="&lt;font face=&quot;Times New Roman&quot;&gt;Mulai&lt;/font&gt;" style="rounded=1;whiteSpace=wrap;html=1;arcSize=50;" parent="1" vertex="1">
          <mxGeometry x="340" y="40" width="120" height="40" as="geometry" />
        </mxCell>
        <mxCell id="7m37HU-JpjzB4hNOFp2D-5" style="edgeStyle=orthogonalEdgeStyle;rounded=0;orthogonalLoop=1;jettySize=auto;html=1;exitX=0.75;exitY=0;exitDx=0;exitDy=0;" edge="1" parent="1" source="IdXI2zrkfBvDs6GvW4y7-20">
          <mxGeometry relative="1" as="geometry">
            <mxPoint x="430.3103448275863" y="110" as="targetPoint" />
          </mxGeometry>
        </mxCell>
        <mxCell id="7m37HU-JpjzB4hNOFp2D-8" value="" style="edgeStyle=orthogonalEdgeStyle;rounded=0;orthogonalLoop=1;jettySize=auto;html=1;" edge="1" parent="1" source="IdXI2zrkfBvDs6GvW4y7-20" target="7m37HU-JpjzB4hNOFp2D-2">
          <mxGeometry relative="1" as="geometry" />
        </mxCell>
        <mxCell id="IdXI2zrkfBvDs6GvW4y7-20" value="&lt;font style=&quot;font-size: 11px;&quot; face=&quot;Times New Roman&quot;&gt;Identifikasi Masalah&lt;/font&gt;" style="rounded=0;whiteSpace=wrap;html=1;" parent="1" vertex="1">
          <mxGeometry x="340" y="110" width="120" height="40" as="geometry" />
        </mxCell>
        <mxCell id="7m37HU-JpjzB4hNOFp2D-26" value="" style="edgeStyle=orthogonalEdgeStyle;rounded=0;orthogonalLoop=1;jettySize=auto;html=1;" edge="1" parent="1" source="IdXI2zrkfBvDs6GvW4y7-38" target="IdXI2zrkfBvDs6GvW4y7-42">
          <mxGeometry relative="1" as="geometry" />
        </mxCell>
        <mxCell id="IdXI2zrkfBvDs6GvW4y7-38" value="&lt;font face=&quot;Times New Roman&quot;&gt;&lt;i&gt;K-Fold Cross&lt;br&gt;Validation&lt;/i&gt;&lt;br&gt;&lt;/font&gt;" style="rounded=0;whiteSpace=wrap;html=1;" parent="1" vertex="1">
          <mxGeometry x="340" y="700" width="120" height="40" as="geometry" />
        </mxCell>
        <mxCell id="7m37HU-JpjzB4hNOFp2D-27" value="" style="edgeStyle=orthogonalEdgeStyle;rounded=0;orthogonalLoop=1;jettySize=auto;html=1;" edge="1" parent="1" source="IdXI2zrkfBvDs6GvW4y7-42" target="K-xvkSlF35jEx8rKdwMI-3">
          <mxGeometry relative="1" as="geometry" />
        </mxCell>
        <mxCell id="IdXI2zrkfBvDs6GvW4y7-42" value="&lt;font face=&quot;Times New Roman&quot;&gt;Hasil Model&lt;br&gt;Klasifikasi&lt;/font&gt;" style="shape=parallelogram;perimeter=parallelogramPerimeter;whiteSpace=wrap;html=1;fixedSize=1;" parent="1" vertex="1">
          <mxGeometry x="340" y="770" width="120" height="40" as="geometry" />
        </mxCell>
        <mxCell id="K-xvkSlF35jEx8rKdwMI-3" value="&lt;font face=&quot;Times New Roman&quot;&gt;Selesai&lt;br&gt;&lt;/font&gt;" style="rounded=1;whiteSpace=wrap;html=1;arcSize=50;" parent="1" vertex="1">
          <mxGeometry x="340" y="840" width="120" height="40" as="geometry" />
        </mxCell>
        <mxCell id="7m37HU-JpjzB4hNOFp2D-18" value="" style="edgeStyle=orthogonalEdgeStyle;rounded=0;orthogonalLoop=1;jettySize=auto;html=1;" edge="1" parent="1" source="7m37HU-JpjzB4hNOFp2D-1" target="7m37HU-JpjzB4hNOFp2D-17">
          <mxGeometry relative="1" as="geometry" />
        </mxCell>
        <mxCell id="7m37HU-JpjzB4hNOFp2D-1" value="&lt;font face=&quot;Times New Roman&quot;&gt;Data &lt;i&gt;Training&lt;/i&gt;&lt;/font&gt;" style="shape=parallelogram;perimeter=parallelogramPerimeter;whiteSpace=wrap;html=1;fixedSize=1;" vertex="1" parent="1">
          <mxGeometry x="230" y="500" width="120" height="40" as="geometry" />
        </mxCell>
        <mxCell id="7m37HU-JpjzB4hNOFp2D-12" value="" style="edgeStyle=orthogonalEdgeStyle;rounded=0;orthogonalLoop=1;jettySize=auto;html=1;" edge="1" parent="1" source="7m37HU-JpjzB4hNOFp2D-2" target="7m37HU-JpjzB4hNOFp2D-3">
          <mxGeometry relative="1" as="geometry" />
        </mxCell>
        <mxCell id="7m37HU-JpjzB4hNOFp2D-2" value="&lt;font style=&quot;font-size: 11px;&quot; face=&quot;Times New Roman&quot;&gt;Pengumpulan Data&lt;/font&gt;" style="rounded=0;whiteSpace=wrap;html=1;" vertex="1" parent="1">
          <mxGeometry x="340" y="180" width="120" height="40" as="geometry" />
        </mxCell>
        <mxCell id="7m37HU-JpjzB4hNOFp2D-29" value="" style="edgeStyle=orthogonalEdgeStyle;rounded=0;orthogonalLoop=1;jettySize=auto;html=1;" edge="1" parent="1" source="7m37HU-JpjzB4hNOFp2D-3" target="7m37HU-JpjzB4hNOFp2D-28">
          <mxGeometry relative="1" as="geometry" />
        </mxCell>
        <mxCell id="7m37HU-JpjzB4hNOFp2D-3" value="&lt;font style=&quot;font-size: 11px;&quot; face=&quot;Times New Roman&quot;&gt;Input Data&lt;/font&gt;" style="rounded=0;whiteSpace=wrap;html=1;" vertex="1" parent="1">
          <mxGeometry x="340" y="250" width="120" height="40" as="geometry" />
        </mxCell>
        <mxCell id="7m37HU-JpjzB4hNOFp2D-31" style="edgeStyle=orthogonalEdgeStyle;rounded=0;orthogonalLoop=1;jettySize=auto;html=1;entryX=0.5;entryY=0;entryDx=0;entryDy=0;" edge="1" parent="1" source="7m37HU-JpjzB4hNOFp2D-4" target="7m37HU-JpjzB4hNOFp2D-14">
          <mxGeometry relative="1" as="geometry">
            <Array as="points">
              <mxPoint x="400" y="460" />
              <mxPoint x="510" y="460" />
            </Array>
          </mxGeometry>
        </mxCell>
        <mxCell id="7m37HU-JpjzB4hNOFp2D-32" style="edgeStyle=orthogonalEdgeStyle;rounded=0;orthogonalLoop=1;jettySize=auto;html=1;entryX=0.543;entryY=0.019;entryDx=0;entryDy=0;entryPerimeter=0;" edge="1" parent="1" source="7m37HU-JpjzB4hNOFp2D-4" target="7m37HU-JpjzB4hNOFp2D-1">
          <mxGeometry relative="1" as="geometry">
            <Array as="points">
              <mxPoint x="400" y="460" />
              <mxPoint x="295" y="460" />
            </Array>
          </mxGeometry>
        </mxCell>
        <mxCell id="7m37HU-JpjzB4hNOFp2D-4" value="&lt;font style=&quot;font-size: 11px;&quot; face=&quot;Times New Roman&quot;&gt;Pembagian Data&lt;/font&gt;" style="rounded=0;whiteSpace=wrap;html=1;" vertex="1" parent="1">
          <mxGeometry x="340" y="390" width="120" height="40" as="geometry" />
        </mxCell>
        <mxCell id="7m37HU-JpjzB4hNOFp2D-22" style="edgeStyle=orthogonalEdgeStyle;rounded=0;orthogonalLoop=1;jettySize=auto;html=1;entryX=1;entryY=0.5;entryDx=0;entryDy=0;" edge="1" parent="1" source="7m37HU-JpjzB4hNOFp2D-14" target="IdXI2zrkfBvDs6GvW4y7-38">
          <mxGeometry relative="1" as="geometry">
            <mxPoint x="470" y="660" as="targetPoint" />
          </mxGeometry>
        </mxCell>
        <mxCell id="7m37HU-JpjzB4hNOFp2D-14" value="&lt;font face=&quot;Times New Roman&quot;&gt;Data &lt;i&gt;Testing&lt;/i&gt;&lt;/font&gt;" style="shape=parallelogram;perimeter=parallelogramPerimeter;whiteSpace=wrap;html=1;fixedSize=1;" vertex="1" parent="1">
          <mxGeometry x="450" y="500" width="120" height="40" as="geometry" />
        </mxCell>
        <mxCell id="7m37HU-JpjzB4hNOFp2D-21" value="" style="edgeStyle=orthogonalEdgeStyle;rounded=0;orthogonalLoop=1;jettySize=auto;html=1;" edge="1" parent="1" source="7m37HU-JpjzB4hNOFp2D-17" target="7m37HU-JpjzB4hNOFp2D-20">
          <mxGeometry relative="1" as="geometry" />
        </mxCell>
        <mxCell id="7m37HU-JpjzB4hNOFp2D-17" value="&lt;font style=&quot;font-size: 11px;&quot; face=&quot;Times New Roman&quot;&gt;Pemodelan Klasifikasi&lt;br&gt;Menggunakan MLP&lt;br&gt;&lt;/font&gt;" style="rounded=0;whiteSpace=wrap;html=1;" vertex="1" parent="1">
          <mxGeometry x="230" y="565" width="120" height="40" as="geometry" />
        </mxCell>
        <mxCell id="7m37HU-JpjzB4hNOFp2D-23" style="edgeStyle=orthogonalEdgeStyle;rounded=0;orthogonalLoop=1;jettySize=auto;html=1;entryX=0;entryY=0.5;entryDx=0;entryDy=0;" edge="1" parent="1" source="7m37HU-JpjzB4hNOFp2D-20" target="IdXI2zrkfBvDs6GvW4y7-38">
          <mxGeometry relative="1" as="geometry" />
        </mxCell>
        <mxCell id="7m37HU-JpjzB4hNOFp2D-20" value="&lt;font face=&quot;Times New Roman&quot;&gt;Model Klasifikasi&lt;br&gt;Status Desa&lt;/font&gt;" style="shape=parallelogram;perimeter=parallelogramPerimeter;whiteSpace=wrap;html=1;fixedSize=1;" vertex="1" parent="1">
          <mxGeometry x="230" y="630" width="120" height="40" as="geometry" />
        </mxCell>
        <mxCell id="7m37HU-JpjzB4hNOFp2D-30" value="" style="edgeStyle=orthogonalEdgeStyle;rounded=0;orthogonalLoop=1;jettySize=auto;html=1;" edge="1" parent="1" source="7m37HU-JpjzB4hNOFp2D-28" target="7m37HU-JpjzB4hNOFp2D-4">
          <mxGeometry relative="1" as="geometry" />
        </mxCell>
        <mxCell id="7m37HU-JpjzB4hNOFp2D-28" value="&lt;font style=&quot;font-size: 11px;&quot; face=&quot;Times New Roman&quot;&gt;&lt;i&gt;Preprocessing&lt;/i&gt; Data&lt;/font&gt;" style="rounded=0;whiteSpace=wrap;html=1;" vertex="1" parent="1">
          <mxGeometry x="340" y="320" width="120" height="40" as="geometry" />
        </mxCell>
      </root>
    </mxGraphModel>
  </diagram>
</mxfile>
